<svg width="15" height="16" viewBox="0 0 15 16" fill="none" xmlns="http://www.w3.org/2000/svg">
<path fill-rule="evenodd" clip-rule="evenodd" d="M5.29412 0.799999H4.41176V1.6H6.61765V2.40002H4.41176V3.23318C5.66369 3.42362 6.61765 4.41081 6.61765 5.60001V6.40001H1.32353V5.60001C1.32353 4.41081 2.27749 3.42362 3.52941 3.23318V2.40002H2.57175C2.39007 2.86606 1.89979 3.20002 1.32353 3.20002C0.592566 3.20002 0 2.66274 0 2C0 1.33726 0.592566 0.799999 1.32353 0.799999C1.89979 0.799999 2.39007 1.13392 2.57175 1.6H3.52941V0.799999H2.64706V0H5.29412V0.799999ZM1.32353 7.20001V15.6C1.32353 15.8209 1.52104 16 1.76471 16H6.17647C6.42013 16 6.61765 15.8209 6.61765 15.6V7.20001H1.32353ZM1.32353 1.6C1.07988 1.6 0.882353 1.77909 0.882353 2C0.882353 2.22091 1.07988 2.40002 1.32353 2.40002C1.56719 2.40002 1.76471 2.22091 1.76471 2C1.76471 1.77909 1.56719 1.6 1.32353 1.6ZM8.38235 6.80001C8.38235 5.91633 9.17246 5.20001 10.1471 5.20001C11.1217 5.20001 11.9118 5.91633 11.9118 6.80001V9.20001C11.9118 10.0836 11.1217 10.8 10.1471 10.8C9.17246 10.8 8.38235 10.0836 8.38235 9.20001V6.80001ZM10.1471 6.00001C9.65974 6.00001 9.26471 6.35817 9.26471 6.80001V9.20001C9.26471 9.64181 9.65974 10 10.1471 10C10.6344 10 11.0294 9.64181 11.0294 9.20001V6.80001C11.0294 6.35817 10.6344 6.00001 10.1471 6.00001ZM12.3529 8.80001H13.6765C13.9201 8.80001 14.1176 8.97909 14.1176 9.20001C14.1176 9.42089 13.9201 9.60001 13.6765 9.60001C12.9455 9.60001 12.3529 10.1372 12.3529 10.8V11.6C12.3529 11.8209 12.5505 12 12.7941 12H15V11.2H13.2353V10.8C13.2353 10.5791 13.4328 10.4 13.6765 10.4C14.4075 10.4 15 9.86273 15 9.20001C15 8.53725 14.4075 8.00001 13.6765 8.00001H12.3529V8.80001Z" fill="white"/>
</svg>
